<svg height="480pt" viewBox="0 0 480 480" width="480pt" xmlns="http://www.w3.org/2000/svg"><path d="m448 112h-416v336h416zm-16 320h-384v-304h384zm0 0"/><path d="m264 240c.515625-13.675781-7.816406-26.132812-20.652344-30.882812-1.933594-13.835938-13.398437-24.367188-27.347656-25.117188-13.949219.75-25.414062 11.28125-27.347656 25.117188-12.835938 4.75-21.167969 17.207031-20.652344 30.882812v8h96zm-78.335938-8c1.574219-4.464844 5.617188-7.59375 10.335938-8h8v-8c0-8.671875 5.496094-16 12-16s12 7.328125 12 16v8h8c4.71875.40625 8.761719 3.535156 10.335938 8zm0 0"/><path d="m416 216c-.027344-19.257812-13.746094-35.773438-32.671875-39.328125-3.53125-18.941406-20.0625-32.671875-39.328125-32.671875s-35.796875 13.730469-39.328125 32.671875c-18.925781 3.554687-32.644531 20.070313-32.671875 39.328125v8h144zm-126.628906-8c3.402344-9.582031 12.460937-15.988281 22.628906-16h8v-8c0-13.253906 10.746094-24 24-24s24 10.746094 24 24v8h8c10.167969.011719 19.226562 6.417969 22.628906 16zm0 0"/><path d="m263.203125 18.183594c-2.628906-10.679688-12.207031-18.183594-23.203125-18.183594s-20.574219 7.503906-23.203125 18.183594l-162.269531 61.816406h-54.527344v400h480v-400h-54.527344zm-23.203125-2.183594c4.417969 0 8 3.582031 8 8s-3.582031 8-8 8-8-3.582031-8-8c.003906-4.417969 3.585938-7.996094 8-8zm-21.410156 18.621094c3.992187 8.1875 12.304687 13.378906 21.410156 13.378906s17.417969-5.191406 21.410156-13.378906l119.117188 45.378906h-281.054688zm245.410156 429.378906h-448v-368h448zm0 0"/><path d="m112 224c17.671875 0 32-14.328125 32-32s-14.328125-32-32-32-32 14.328125-32 32c.019531 17.664062 14.335938 31.980469 32 32zm0-48c8.835938 0 16 7.164062 16 16s-7.164062 16-16 16-16-7.164062-16-16c.007812-8.832031 7.167969-15.992188 16-16zm0 0"/><path d="m72.617188 416h335.382812c2.976562 0 5.703125-1.652344 7.085938-4.289062 1.378906-2.636719 1.183593-5.820313-.507813-8.265626l-99.691406-144c-1.574219-2.039062-4.003907-3.234374-6.578125-3.234374-2.574219 0-5.003906 1.195312-6.578125 3.234374l-61.421875 88.722657-61.421875-88.722657c-1.574219-2.039062-4.003907-3.234374-6.578125-3.234374-2.574219 0-5.003906 1.195312-6.578125 3.234374l-99.691407 144c-1.691406 2.445313-1.886718 5.628907-.507812 8.265626 1.382812 2.636718 4.109375 4.289062 7.085938 4.289062zm235.691406-137.945312 84.421875 121.945312h-168.84375zm-136 0 58.265625 84.171874-26.148438 37.773438h-116.539062zm0 0"/><path d="m128 368h16v16h-16zm0 0"/><path d="m160 344h16v16h-16zm0 0"/><path d="m288 360h16v16h-16zm0 0"/><path d="m320 336h16v16h-16zm0 0"/></svg>